<?xml version="1.0"?>
<svg width="24" height="24" xmlns="http://www.w3.org/2000/svg" xmlns:svg="http://www.w3.org/2000/svg">

 <g class="layer">
  <title>Layer 1</title>
  <path d="m14.83,6.3c-0.74,-0.03 -0.96,-0.04 -2.83,-0.04s-2.09,0.01 -2.83,0.04c-1.9,0.09 -2.78,0.99 -2.87,2.87c-0.03,0.74 -0.04,0.96 -0.04,2.83s0.01,2.09 0.04,2.83c0.09,1.88 0.97,2.78 2.87,2.87c0.74,0.03 0.96,0.04 2.83,0.04c1.87,0 2.09,-0.01 2.83,-0.04c1.9,-0.09 2.78,-0.99 2.87,-2.87c0.03,-0.74 0.04,-0.96 0.04,-2.83s-0.01,-2.09 -0.04,-2.83c-0.09,-1.88 -0.97,-2.78 -2.87,-2.87zm-2.83,9.29c-1.98,0 -3.59,-1.6 -3.59,-3.59c0,-1.98 1.61,-3.59 3.59,-3.59s3.59,1.61 3.59,3.59c0,1.98 -1.61,3.59 -3.59,3.59zm3.74,-6.49c-0.47,0 -0.84,-0.37 -0.84,-0.84c0,-0.46 0.37,-0.84 0.84,-0.84c0.46,0 0.84,0.38 0.84,0.84c0,0.47 -0.38,0.84 -0.84,0.84zm-1.41,2.9c0,1.29 -1.04,2.33 -2.33,2.33s-2.33,-1.04 -2.33,-2.33c0,-1.29 1.04,-2.33 2.33,-2.33s2.33,1.04 2.33,2.33zm-2.33,-12c-6.63,0 -12,5.37 -12,12s5.37,12 12,12s12,-5.37 12,-12s-5.37,-12 -12,-12zm6.96,14.89c-0.12,2.54 -1.53,3.95 -4.07,4.07c-0.75,0.03 -0.99,0.04 -2.89,0.04s-2.14,-0.01 -2.89,-0.04c-2.54,-0.12 -3.95,-1.53 -4.07,-4.07c-0.03,-0.75 -0.04,-0.99 -0.04,-2.89c0,-1.9 0.01,-2.14 0.04,-2.89c0.12,-2.54 1.53,-3.95 4.07,-4.07c0.75,-0.03 0.99,-0.04 2.89,-0.04s2.14,0.01 2.89,0.04c2.54,0.12 3.95,1.54 4.07,4.07c0.03,0.75 0.04,0.99 0.04,2.89c0,1.9 -0.01,2.14 -0.04,2.89z" fill="#bbbbbb" id="svg_1"/>
 </g>
</svg>