<?xml version="1.0"?>
<svg width="24" height="24" xmlns="http://www.w3.org/2000/svg" xmlns:svg="http://www.w3.org/2000/svg">

 <g class="layer">
  <title>Layer 1</title>
  <path d="m12,0c-6.63,0 -12,5.37 -12,12s5.37,12 12,12s12,-5.37 12,-12s-5.37,-12 -12,-12zm2.22,18.62c-0.36,0.06 -0.47,-0.15 -0.47,-0.34l0,-1.92c0,-0.65 -0.23,-1.08 -0.48,-1.3c1.56,-0.17 3.2,-0.76 3.2,-3.45c0,-0.77 -0.28,-1.39 -0.72,-1.88c0.07,-0.18 0.31,-0.89 -0.07,-1.85c0,0 -0.59,-0.19 -1.93,0.71c-0.56,-0.15 -1.16,-0.23 -1.75,-0.23c-0.6,0 -1.19,0.08 -1.75,0.24c-1.34,-0.91 -1.93,-0.72 -1.93,-0.72c-0.38,0.96 -0.14,1.67 -0.07,1.85c-0.44,0.49 -0.72,1.11 -0.72,1.88c0,2.68 1.64,3.28 3.19,3.46c-0.2,0.17 -0.38,0.48 -0.44,0.93c-0.4,0.18 -1.42,0.49 -2.04,-0.58c0,0 -0.37,-0.67 -1.07,-0.72c0,0 -0.69,-0.01 -0.05,0.43c0,0 0.46,0.21 0.78,1.02c0,0 0.4,1.25 2.35,0.83l0,1.3c0,0.18 -0.11,0.4 -0.46,0.34c-2.78,-0.93 -4.79,-3.55 -4.79,-6.64c0,-3.87 3.13,-7 7,-7s7,3.13 7,7c0,3.09 -2,5.71 -4.78,6.64z" fill="#bbbbbb" id="svg_1"/>
 </g>
</svg>