<?xml version="1.0"?>
<svg width="24" height="24" xmlns="http://www.w3.org/2000/svg" xmlns:svg="http://www.w3.org/2000/svg" clip-rule="evenodd" fill-rule="evenodd" stroke-linejoin="round" version="1.1" xml:space="preserve">

 <g class="layer">
  <title>Layer 1</title>
  <path d="m12,0c-6.63,0 -12,5.37 -12,12c0,6.63 5.37,12 12,12c6.63,0 12,-5.37 12,-12c0,-6.63 -5.37,-12 -12,-12zm3.22,17.87c0.19,0.13 0.43,0.17 0.65,0.09c0.22,-0.09 0.37,-0.27 0.42,-0.5c0.51,-2.38 1.74,-8.41 2.2,-10.57c0.04,-0.17 -0.02,-0.34 -0.15,-0.45c-0.13,-0.1 -0.31,-0.14 -0.47,-0.08c-2.44,0.91 -9.97,3.73 -13.05,4.87c-0.2,0.08 -0.33,0.26 -0.32,0.47c0.01,0.21 0.15,0.39 0.35,0.45c1.38,0.41 3.19,0.98 3.19,0.98c0,0 0.85,2.56 1.29,3.86c0.05,0.17 0.18,0.29 0.35,0.34c0.17,0.04 0.35,-0.01 0.47,-0.12c0.71,-0.67 1.81,-1.71 1.81,-1.71c0,0 2.08,1.53 3.26,2.37zm-6.42,-5.06l0.98,3.23l0.22,-2.05c0,0 3.78,-3.41 5.94,-5.35c0.06,-0.06 0.07,-0.16 0.02,-0.22c-0.05,-0.07 -0.15,-0.09 -0.22,-0.04c-2.5,1.59 -6.94,4.43 -6.94,4.43z" fill="#bbbbbb" id="telegram-4"/>
 </g>
</svg>