<?xml version="1.0"?>
<svg width="24" height="24" xmlns="http://www.w3.org/2000/svg" xmlns:svg="http://www.w3.org/2000/svg">

 <g class="layer">
  <title>Layer 1</title>
  <path d="m12,0c-6.63,0 -12,5.37 -12,12s5.37,12 12,12s12,-5.37 12,-12s-5.37,-12 -12,-12zm-2,16l-2,0l0,-6l2,0l0,6zm-1,-6.89c-0.61,0 -1.1,-0.5 -1.1,-1.11c0,-0.61 0.49,-1.11 1.1,-1.11s1.1,0.5 1.1,1.11c0,0.61 -0.49,1.11 -1.1,1.11zm8,6.89l-2,0l0,-2.86c0,-1.88 -2,-1.72 -2,0l0,2.86l-2,0l0,-6l2,0l0,1.09c0.87,-1.61 4,-1.73 4,1.55l0,3.36z" fill="#bbbbbb" id="svg_1"/>
 </g>
</svg>